<svg width="24" height="24" viewBox="0 0 24 24" fill="none" xmlns="http://www.w3.org/2000/svg">
<path d="M4.25892 16.5936C3.14073 14.7086 2.74913 12.4802 3.15765 10.3269C3.56618 8.17365 4.74672 6.24356 6.47761 4.89909C8.2085 3.55462 10.3707 2.88826 12.5581 3.02514C14.7455 3.16202 16.8077 4.09273 18.3575 5.6425C19.9073 7.19226 20.838 9.25448 20.9749 11.4419C21.1118 13.6293 20.4454 15.7915 19.101 17.5224C17.7565 19.2533 15.8264 20.4338 13.6731 20.8424C11.5198 21.2509 9.29146 20.8593 7.40646 19.7411L7.40648 19.741L4.29805 20.6292C4.16944 20.6659 4.03335 20.6676 3.90387 20.634C3.7744 20.6005 3.65625 20.5329 3.56167 20.4384C3.4671 20.3438 3.39953 20.2256 3.36598 20.0961C3.33243 19.9667 3.33412 19.8306 3.37086 19.702L4.25898 16.5935L4.25892 16.5936Z" stroke="black" stroke-width="1.5" stroke-linecap="round" stroke-linejoin="round"/>
<path d="M12 13.125C12.6213 13.125 13.125 12.6213 13.125 12C13.125 11.3787 12.6213 10.875 12 10.875C11.3787 10.875 10.875 11.3787 10.875 12C10.875 12.6213 11.3787 13.125 12 13.125Z" fill="black"/>
<path d="M7.5 13.125C8.12132 13.125 8.625 12.6213 8.625 12C8.625 11.3787 8.12132 10.875 7.5 10.875C6.87868 10.875 6.375 11.3787 6.375 12C6.375 12.6213 6.87868 13.125 7.5 13.125Z" fill="black"/>
<path d="M16.5 13.125C17.1213 13.125 17.625 12.6213 17.625 12C17.625 11.3787 17.1213 10.875 16.5 10.875C15.8787 10.875 15.375 11.3787 15.375 12C15.375 12.6213 15.8787 13.125 16.5 13.125Z" fill="black"/>
</svg>
