<svg width="24" height="24" viewBox="0 0 24 24" fill="none" xmlns="http://www.w3.org/2000/svg">
<path d="M13.8749 16.1245L3.74988 16.1245M13.8749 16.1245C13.8749 17.16 14.7143 17.9995 15.7499 17.9995C16.7854 17.9995 17.6249 17.16 17.6249 16.1245M13.8749 16.1245C13.8749 15.089 14.7143 14.2495 15.7499 14.2495C16.7854 14.2495 17.6249 15.089 17.6249 16.1245M20.2499 16.1245L17.6249 16.1245M7.87488 7.87452L3.74988 7.87447M7.87488 7.87452C7.87488 8.91005 8.71434 9.74951 9.74988 9.74951C10.7854 9.74951 11.6249 8.91005 11.6249 7.87452M7.87488 7.87452C7.87488 6.83899 8.71434 5.99951 9.74988 5.99951C10.7854 5.99951 11.6249 6.83899 11.6249 7.87452M20.2499 7.87447L11.6249 7.87452" stroke="black" stroke-width="1.5" stroke-linecap="round" stroke-linejoin="round"/>
</svg>
