<svg width="24" height="24" viewBox="0 0 24 24" fill="none" xmlns="http://www.w3.org/2000/svg">
<path d="M12 16.5C14.4853 16.5 16.5 14.4853 16.5 12C16.5 9.51472 14.4853 7.5 12 7.5C9.51472 7.5 7.5 9.51472 7.5 12C7.5 14.4853 9.51472 16.5 12 16.5Z" stroke="black" stroke-width="1.5" stroke-linecap="round" stroke-linejoin="round"/>
<path d="M11.5192 4.13952L9.75023 2.81315C9.65532 2.74175 9.54479 2.69393 9.42777 2.67363C9.31074 2.65332 9.19057 2.66112 9.07715 2.69638C8.52927 2.86794 7.99772 3.08787 7.48878 3.35355C7.38343 3.40881 7.29273 3.48834 7.22416 3.58556C7.1556 3.68278 7.11114 3.79492 7.09445 3.91271L6.78173 6.10186C6.66253 6.20753 6.54583 6.31742 6.43163 6.43156C6.31746 6.54573 6.20754 6.66246 6.10185 6.78176L6.1018 6.78179L3.91304 7.09479C3.79544 7.11142 3.68347 7.15576 3.58636 7.22415C3.48926 7.29254 3.40979 7.38303 3.35452 7.48816C3.08843 7.99689 2.86808 8.52826 2.69607 9.076C2.66065 9.18957 2.65275 9.30994 2.67301 9.42717C2.69328 9.5444 2.74113 9.65513 2.81263 9.75022L4.13946 11.5193C4.12988 11.6783 4.12507 11.8385 4.12503 12C4.12503 12.1614 4.12984 12.3217 4.13947 12.4808L4.13946 12.4809L2.81309 14.2499C2.74169 14.3448 2.69387 14.4553 2.67356 14.5723C2.65326 14.6894 2.66106 14.8095 2.69631 14.923C2.86788 15.4708 3.08781 16.0024 3.35349 16.5113C3.40875 16.6167 3.48828 16.7074 3.5855 16.776C3.68272 16.8445 3.79486 16.889 3.91265 16.9057L6.1018 17.2184C6.20746 17.3376 6.31736 17.4543 6.43149 17.5685C6.54566 17.6827 6.66239 17.7926 6.78169 17.8983L6.78173 17.8983L7.09473 20.0871C7.11136 20.2047 7.15569 20.3167 7.22408 20.4138C7.29248 20.5109 7.38297 20.5903 7.4881 20.6456C7.99682 20.9117 8.52819 21.132 9.07593 21.304C9.18951 21.3395 9.30987 21.3474 9.4271 21.3271C9.54433 21.3068 9.65506 21.259 9.75015 21.1875L11.5192 19.8607C11.6782 19.8702 11.8385 19.875 11.9999 19.8751C12.1614 19.8751 12.3217 19.8703 12.4807 19.8607L12.4808 19.8607L14.2498 21.187C14.3447 21.2584 14.4553 21.3063 14.5723 21.3266C14.6893 21.3469 14.8095 21.3391 14.9229 21.3038C15.4708 21.1322 16.0023 20.9123 16.5113 20.6466C16.6166 20.5914 16.7073 20.5118 16.7759 20.4146C16.8445 20.3174 16.8889 20.2053 16.9056 20.0875L17.2183 17.8983C17.3375 17.7927 17.4542 17.6828 17.5684 17.5686C17.6826 17.4545 17.7925 17.3377 17.8982 17.2184L17.8983 17.2184L20.087 16.9054C20.2046 16.8888 20.3166 16.8444 20.4137 16.776C20.5108 16.7076 20.5903 16.6172 20.6455 16.512C20.9116 16.0033 21.132 15.4719 21.304 14.9242C21.3394 14.8106 21.3473 14.6902 21.327 14.573C21.3068 14.4558 21.2589 14.3451 21.1874 14.25L19.8606 12.4809C19.8702 12.3219 19.875 12.1616 19.875 12.0002C19.875 11.8387 19.8702 11.6785 19.8606 11.5194L19.8606 11.5193L21.187 9.75029C21.2584 9.65538 21.3062 9.54485 21.3265 9.42783C21.3468 9.3108 21.339 9.19063 21.3037 9.07721C21.1322 8.52933 20.9123 7.99778 20.6466 7.48884C20.5913 7.38349 20.5118 7.29279 20.4146 7.22422C20.3173 7.15566 20.2052 7.1112 20.0874 7.09452L17.8983 6.78179C17.7926 6.66259 17.6827 6.54589 17.5686 6.43169C17.4544 6.31752 17.3377 6.2076 17.2184 6.10191L17.2183 6.10186L16.9053 3.9131C16.8887 3.7955 16.8444 3.68353 16.776 3.58642C16.7076 3.48932 16.6171 3.40986 16.512 3.35459C16.0032 3.08849 15.4719 2.86814 14.9241 2.69613C14.8106 2.66071 14.6902 2.65281 14.573 2.67307C14.4557 2.69334 14.345 2.7412 14.2499 2.81269L12.4808 4.13952C12.3218 4.12995 12.1616 4.12514 12.0001 4.12509C11.8387 4.12509 11.6784 4.1299 11.5193 4.13953L11.5192 4.13952Z" stroke="black" stroke-width="1.5" stroke-linecap="round" stroke-linejoin="round"/>
</svg>
