<svg width="33" height="32" viewBox="0 0 33 32" fill="none" xmlns="http://www.w3.org/2000/svg">
<path d="M22.5 25C22.5 26.6569 23.8431 28 25.5 28C27.1569 28 28.5 26.6569 28.5 25C28.5 23.3431 27.1569 22 25.5 22C23.8431 22 22.5 23.3431 22.5 25ZM22.5 25H9.5C8.17392 25 6.90215 24.4732 5.96447 23.5355C5.02678 22.5979 4.5 21.3261 4.5 20C4.5 18.6739 5.02678 17.4021 5.96447 16.4645C6.90215 15.5268 8.17392 15 9.5 15H21.5C22.5609 15 23.5783 14.5786 24.3284 13.8284C25.0786 13.0783 25.5 12.0609 25.5 11C25.5 9.93913 25.0786 8.92172 24.3284 8.17157C23.5783 7.42143 22.5609 7 21.5 7H9.5" stroke="#636366" stroke-width="2" stroke-linecap="round" stroke-linejoin="round"/>
</svg>
