<svg width="33" height="32" viewBox="0 0 33 32" fill="none" xmlns="http://www.w3.org/2000/svg">
<path d="M16.5 28C23.1274 28 28.5 22.6274 28.5 16C28.5 9.37258 23.1274 4 16.5 4C9.87258 4 4.5 9.37258 4.5 16C4.5 22.6274 9.87258 28 16.5 28Z" stroke="#636366" stroke-width="2" stroke-linecap="round" stroke-linejoin="round"/>
<path d="M21.6973 18.9995C21.1701 19.9113 20.4124 20.6684 19.5001 21.1947C18.5879 21.721 17.5532 21.9981 16.5 21.9981C15.4468 21.9981 14.4122 21.7211 13.4999 21.1947C12.5876 20.6684 11.8299 19.9114 11.3027 18.9996" stroke="#636366" stroke-width="2" stroke-linecap="round" stroke-linejoin="round"/>
<path d="M12 15C12.8284 15 13.5 14.3284 13.5 13.5C13.5 12.6716 12.8284 12 12 12C11.1716 12 10.5 12.6716 10.5 13.5C10.5 14.3284 11.1716 15 12 15Z" fill="#636366"/>
<path d="M21 15C21.8284 15 22.5 14.3284 22.5 13.5C22.5 12.6716 21.8284 12 21 12C20.1716 12 19.5 12.6716 19.5 13.5C19.5 14.3284 20.1716 15 21 15Z" fill="#636366"/>
</svg>
